<?xml version="1.0" encoding="UTF-8"?>
<svg id="Layer_1" xmlns="http://www.w3.org/2000/svg" xmlns:xlink="http://www.w3.org/1999/xlink" version="1.1" viewBox="0 0 818 282">
  <!-- Generator: Adobe Illustrator 30.4.0, SVG Export Plug-In . SVG Version: 2.1.4 Build 226)  -->
  <defs>
    <style>
      .st0 {
        fill: #fe52bf;
      }

      .st1 {
        fill: #7ce7fe;
      }

      .st2 {
        fill: url(#linear-gradient2);
      }

      .st3 {
        fill: url(#linear-gradient1);
      }

      .st4 {
        fill: url(#linear-gradient9);
      }

      .st5 {
        fill: url(#linear-gradient3);
      }

      .st6 {
        fill: url(#linear-gradient6);
      }

      .st7 {
        fill: url(#linear-gradient8);
      }

      .st8 {
        fill: url(#linear-gradient7);
      }

      .st9 {
        fill: url(#linear-gradient5);
      }

      .st10 {
        fill: url(#linear-gradient4);
      }

      .st11 {
        fill: #f3470c;
      }

      .st12 {
        fill: #540d09;
      }

      .st13 {
        fill: #01702b;
      }

      .st14 {
        fill: #feec4d;
      }

      .st15 {
        fill: #04311a;
      }

      .st16 {
        fill: url(#linear-gradient);
      }

      .st17 {
        fill: #fd5a0a;
      }

      .st18 {
        fill: #122139;
      }

      .st19 {
        fill: #87126b;
      }

      .st20 {
        fill: #003284;
      }

      .st21 {
        fill: #fefefe;
      }

      .st22 {
        fill: #072314;
      }

      .st23 {
        fill: #2e0a36;
      }

      .st24 {
        fill: #641208;
      }

      .st25 {
        fill: #0f9222;
      }

      .st26 {
        fill: #a6f62a;
      }

      .st27 {
        fill: #ba2f0c;
      }

      .st28 {
        fill: #febf14;
      }

      .st29 {
        fill: #dcfe61;
      }
    </style>
    <linearGradient id="linear-gradient" x1="285.12" y1="959.32" x2="280.71" y2="849.05" gradientTransform="translate(46.6 -794.47) scale(1.05)" gradientUnits="userSpaceOnUse">
      <stop offset="0" stop-color="#ff9713"/>
      <stop offset="1" stop-color="#ffba13"/>
    </linearGradient>
    <linearGradient id="linear-gradient1" x1="471.45" y1="968.75" x2="490.11" y2="825.57" gradientTransform="translate(2.17 -775.04) rotate(-1.8) scale(1.05)" gradientUnits="userSpaceOnUse">
      <stop offset="0" stop-color="#02367f"/>
      <stop offset="1" stop-color="#0152ab"/>
    </linearGradient>
    <linearGradient id="linear-gradient2" x1="455.61" y1="958.68" x2="483.95" y2="837.39" gradientTransform="translate(2.17 -775.04) rotate(-1.8) scale(1.05)" gradientUnits="userSpaceOnUse">
      <stop offset="0" stop-color="#00a8fb"/>
      <stop offset="1" stop-color="#00d7ff"/>
    </linearGradient>
    <linearGradient id="linear-gradient3" x1="541.34" y1="949.93" x2="533.55" y2="865.91" gradientTransform="translate(2.17 -775.04) rotate(-1.8) scale(1.05)" gradientUnits="userSpaceOnUse">
      <stop offset="0" stop-color="#a11376"/>
      <stop offset="1" stop-color="#d52a9d"/>
    </linearGradient>
    <linearGradient id="linear-gradient4" x1="538.64" y1="930.07" x2="536.81" y2="872.53" gradientTransform="translate(2.17 -775.04) rotate(-1.8) scale(1.05)" gradientUnits="userSpaceOnUse">
      <stop offset="0" stop-color="#fe72c4"/>
      <stop offset="1" stop-color="#ffbde5"/>
    </linearGradient>
    <linearGradient id="linear-gradient5" x1="527.73" y1="843.59" x2="547.35" y2="860.81" gradientTransform="translate(2.17 -775.04) rotate(-1.8) scale(1.05)" gradientUnits="userSpaceOnUse">
      <stop offset="0" stop-color="#970b5b"/>
      <stop offset="1" stop-color="#bd1f89"/>
    </linearGradient>
    <linearGradient id="linear-gradient6" x1="514.49" y1="887.44" x2="490.42" y2="887.67" gradientTransform="translate(2.17 -775.04) rotate(-1.8) scale(1.05)" gradientUnits="userSpaceOnUse">
      <stop offset="0" stop-color="#101d5a"/>
      <stop offset="1" stop-color="#003b85"/>
    </linearGradient>
    <linearGradient id="linear-gradient7" x1="682.94" y1="918.86" x2="691.58" y2="900.92" gradientTransform="translate(2.17 -775.04) rotate(-1.8) scale(1.05)" gradientUnits="userSpaceOnUse">
      <stop offset="0" stop-color="#ffd02b"/>
      <stop offset="1" stop-color="#fff551"/>
    </linearGradient>
    <linearGradient id="linear-gradient8" x1="633.73" y1="919.02" x2="659.46" y2="901.5" gradientTransform="translate(2.17 -775.04) rotate(-1.8) scale(1.05)" gradientUnits="userSpaceOnUse">
      <stop offset="0" stop-color="#721506"/>
      <stop offset="1" stop-color="#c9320e"/>
    </linearGradient>
    <linearGradient id="linear-gradient9" x1="597.47" y1="953.23" x2="591.98" y2="827.92" gradientTransform="translate(2.17 -775.04) rotate(-1.8) scale(1.05)" gradientUnits="userSpaceOnUse">
      <stop offset="0" stop-color="#2b7625"/>
      <stop offset="1" stop-color="#26ac26"/>
    </linearGradient>
  </defs>
  <g id="Plex">
    <path class="st18" d="M144.09,50.52c9.91-.39,20.23-.16,30.15.08,3.82.09,7.97.39,10.74,3.35,1.14,1.21,1.74,2.52,2,4.15,1.15,7.08.47,15.13.48,22.32.11,13.78.04,27.56-.2,41.33,3.23-5.32,6.74-10.51,11.05-15.02,14.11-14.76,32.72-18.86,52.43-18.49,6.93.13,14.81.72,21.37,3,3.55,1.23,15.87,7.64,15.87,7.64,0,0,.04-.82.09-1.23.31-2.67,1.78-5.09,3.88-6.74,4.18-3.28,42.5-2.31,49.22-1.46,1.64.21,3.66.46,5.09,1.35,6.68,4.19,17.68,20.21,22.92,26.95,3.95-5.18,18.62-26.9,25.39-27.81,10.24-1.36,21.21-.15,31.43-.6,28.8-1.27,15.01,13.22,6.05,27.05l-27.4,41.46c2.28,2.17,4.1,4.59,5.99,7.12,12.04,16.14,24.43,32.2,35.63,48.91,1.62,2.41,1.46,6.63-.92,8.47-2.98,2.3-8.02,2.82-11.68,2.9-11.11.07-22.27,0-33.38,0-4.24,0-8.52.11-12.74-.39-5.08-3.35-14.61-17.38-19.02-23.09-18.92,26.59-13.34,23.7-45.91,23.49-6.53.05-15.2.53-21.3-.48-3.12-.51-6.07-3.25-6.71-5.97-.01-.06-.45-.61-.44-.61-4.23,1.1-12.54,5.18-16.48,5.96-14.54,2.87-32.51,3.89-46.82.56-21.35-4.97-32.13-14-43.47-32.02.23,5.59,1.55,27.43-1.93,29.9-6.46,4.6-34.52,2.14-43.56,2.12-3.41,0-6.6-4.95-6.79-8.02-1.26-20.47.17-41.28-.58-61.79-.55.75-1.14,1.46-1.77,2.14-14.21,15.38-37.09,18.02-56.64,18.77.25,8.9.21,18.44.01,27.28-.25,11.28,3.73,22.2-11.82,22.13-10.28-.05-20.39-.48-30.6.07-4.54.25-10.36-1.25-10.97-6.45-1-7.3-.69-14.59-.69-21.93l.02-31.12v-93.38c.05-18.06,1.02-17.82,19.57-17.76,4,0,8.25,0,12.27.08,20.58.45,42.52-1.77,61.64,7.4,8.74,4.16,13.19,8.5,19.7,15.52.15-3.12.06-6.16.14-9.27.23-8.43-1.7-16.23,8.68-17.89v.02Z"/>
    <path class="st21" d="M33.35,64.56c10.86.33,21.77.09,32.64.1,18.66.02,39.72-.43,54.97,12.15,9.2,7.6,14.31,19.14,15.42,30.86,1.24,13.04-1.64,27.32-10.13,37.57-10,12.07-24.79,15.52-39.68,16.89-7.13.22-14.28.13-21.41.12l.02,49.83h-31.88c.4-17.98.14-36.01.14-54.01l-.07-93.52h-.02Z"/>
    <path class="st18" d="M65.17,89.44c10.34-.11,23.22-1.52,31.6,5.82,4.4,3.85,6.27,9.37,6.65,15.08.52,7.76-1.21,13.65-6.32,19.46-9.35,7.54-20.62,6.09-31.87,6-.71-15.33-.13-31.01-.06-46.37h0Z"/>
    <path class="st21" d="M223.77,164.17c1.66,8.38,3.94,15.82,11.58,20.66,14.99,9.48,42.6,6.49,56.53-3.21,1.15,7.39,1.75,14.54,2.72,21.88-5.99,5.9-17.26,8.97-25.38,10.11-21.22,2.97-45.97,1.45-61.66-14.87-20.98-21.57-21.23-65.55,0-87.01,10.62-10.73,25.55-14.93,40.38-14.83,38.55.25,52.1,25.53,51.62,61.02-.04,2.06-.11,4.13-.21,6.19l-75.58.05h0Z"/>
    <path class="st18" d="M244.25,119.4c5.79-.35,11.86.11,16.75,3.55,6.55,4.6,8.03,11.77,9.33,19.14l-19.6.02c-9.02.08-18.03.06-27.05-.08.88-4.98,2.35-10.1,5.33-14.24,3.77-5.24,9.05-7.38,15.24-8.38h0Z"/>
    <path class="st16" d="M298,97.46c2.4-.18,5.17-.17,7.58-.11,11.92.3,24.35-.45,36.21.27,3.01,2.61,5.9,6.92,8.45,10.01,6.1,7.39,13.05,18.13,19.61,24.8,6.06,8.29,12.22,16.5,18.49,24.64-2.86,4.52-16.95,22.97-18,25.63-3.73,6.41-18.07,25.18-23.2,31.32-9.8.32-19.85-.08-29.68.08-5.14.08-10.98.09-16.05-.44,2.64-4.18,5.96-8.53,8.99-12.46,11.04-14.3,21.83-28.98,33.3-42.93l-29.95-39.48c-3.83-5.01-12.96-16.31-15.75-21.31v-.02Z"/>
    <path class="st21" d="M146.89,59.53c10.25.17,20.52.06,30.78.07v152.44l-30.72.03-.05-152.55h0Z"/>
    <path class="st21" d="M395.53,98.37c12.34.07,24.67.07,37.01-.01-10.68,16.8-22.8,32.93-33.86,49.49-2.12,3.17-4.39,6.32-6.68,9.36l29.54,39.63c4.16,5.56,8.92,11.4,12.87,16.96-13.78.17-27.57.2-41.35.08-7.35-10.6-15.37-20.6-22.72-31.19,1.05-2.66,15.15-21.12,18-25.63-6.27-8.13-12.44-16.34-18.49-24.64,7.77-11.07,17.32-23.36,25.67-34.06h0Z"/>
  </g>
  <g id="Kids">
    <path class="st3" d="M455.91,101.32c-1.38-5.93-.53-10.58,5.77-12.69,12.78-4.25,25.85-7.75,38.76-11.58,5.89-1.75,10.76-3.16,15.86,1.06,2.1,4.74,2.59,21.03,2.96,26.94,1.42-3.25,14.1-24.6,16.56-27.31,1.26-1.39,2.88-2.4,4.67-2.93,9.96-2.89,26.18,8.09,34.33,12.55,4.72-11.91,17.93-18.19,30.2-12.71,2.76,1.24,4.87,3.88,6.38,6.46,3.21,4.64,4.65,6.07,5.34,11.76-.04,6.93-1.41,11.11-6.42,16.23-1.48,1.51-6.24,5.15-7.03,6.18,5.11.5,11.12,1.05,15.54,3.91-2.41,2.28-3.4,3.91-5.46,6.37l-1.96,3.1c-8.45,14.07-9.48,28.27-7.1,44.28,1.07,1.02,2.04,6.22,2.54,7.83,1.88,6.06,4.6,12.24,8.64,17.18-.64,4.48,2.32,4.1,1.76,8.34l-2.89-2.59c-4.25,5.04-15.57,8.03-21.91,6.83-2.68,1.48-7.23,6.85-9.98,9.15-7.63,6.39-20.09,16.4-30.25,8.95-10.45-7.67-18.47-19.26-26.96-28.95.25,4.15,1.68,14.48-.91,17.7-3.24,4.04-23.9,8.32-29.69,8.97-3.39.38-7.69.12-10.46-2.13-4.99-4.05-6.44-26.61-7.2-33.69-.21-1.21-.38-2.63-.5-3.86-2.01-20.34-5.45-40.69-7.03-61.05-.21-1.03-.37-2.07-.51-3.11-1.35-1.61-6.94-.01-8.81-4.67-2.19-5.43-3.04-10.86-4.26-16.54l-.02.03Z"/>
    <path class="st2" d="M464.53,99.48c0-1.11-.15-3.44,1.19-3.74,5.36-1.24,39.86-13.11,42.77-12.11.75.55.79,1.09.99,1.99.36,4.59,1.8,44.38,2.28,45.14-.18,2-.32,3.99-.42,6,11.24-7.36,20.46-24.01,27.66-35.28,2.67-4.18,5.16-8.89,8.69-12.39,5.02.17,11.25,3.28,15.41,5.99,1.53,1,3.89,2.63,5.51,3.23.61-.29,1.24,0,1.9.21,1.15,13.41-27.03,38.73-39,44.59l39.37,36.23c3.06,2.9,14.86,13.59,16.39,16.44l-2.84,2.3c-5.6,4.6-10.9,9.53-16.77,13.81-1.83,1.34-5.32,4.06-7.66,3.61-7.28-1.4-41.9-48.29-47.86-57.4.48,10.09.9,20.19,1.27,30.28.17,4.9.69,13.48.22,18.05-2.18,1.14-23.05,7.41-23.77,5.26-2.28-6.79-3.03-16.72-3.94-24-1.44-11.27-2.8-22.55-4.08-33.85-1.58-14.04-3.87-29.84-5.07-43.77-11.68,3.55-9.91.26-12.26-10.6h.01Z"/>
    <path class="st1" d="M584.45,198.07c-1.32-.47-2.99-1.88-4.08-2.82-17.18-15.02-33.63-30.86-50.76-45.95-.79-.7-1.92-1.72-2.01-2.73.75-1.71,2.35-2.53,3.92-3.46l39.37,36.23c3.06,2.9,14.86,13.59,16.39,16.44l-2.84,2.3h0Z"/>
    <path class="st1" d="M464.53,99.48c0-1.11-.15-3.44,1.19-3.74,5.36-1.24,39.86-13.11,42.77-12.11.75.55.79,1.09.99,1.99l.08,3.84c-5.4,1.7-40.15,12.69-42.92,12.04-.94-.8-1.29-1.56-2.11-2.01h0Z"/>
    <path class="st5" d="M582.44,116.6c.66-.04,1.6-.26,2.29-.35,6.14-.81,12.38-.72,18.57-.94,5.11.5,11.12,1.05,15.54,3.91-2.41,2.28-3.4,3.91-5.46,6.37l-1.96,3.1c-8.45,14.07-9.48,28.27-7.1,44.28,1.07,1.02,2.04,6.22,2.54,7.83,1.88,6.06,4.6,12.24,8.64,17.18-.64,4.48,2.32,4.1,1.76,8.34l-2.89-2.59c-4.25,5.04-15.57,8.03-21.91,6.83-1.52-2.15.7-2.07-2.15-4.56l.02-.35.8-.03c-1.46-3.8-1.22-3.78-3.32-8l-.52-1.86c-1.53-2.86-13.32-13.55-16.39-16.44-.27-3.15-.48-6.31-.62-9.47l.28-27.13c.04-5.05-.15-10.09.24-15.13.63-8.31,4.77-9.04,11.65-11h0Z"/>
    <path class="st0" d="M579.26,181.83c1.33.85,1.96,2.42,3.83,2.23.51-.48.75-.75.72-1.56-.54-17.03.39-34.09.73-51.11.01-.44.25-2.04.75-2.21,4.65-1.66,10.38-.8,15.29-1.04,3.61-.07,7.58.03,10.86.54-8.45,14.07-9.48,28.27-7.1,44.28l-.02.3c-.08,3.47.22,17.74-1,20.36-.87,1.85-8.06,2.05-10.7,1.98h-.17c-2.92-1.66-11.87-10.95-13.17-13.77h0Z"/>
    <path class="st10" d="M579.26,181.83c-.65-16.86-.82-33.74-.5-50.61.07-3.12-.34-6.89,3.43-7.73,6.33-1.42,26.73-2.63,31.19,2.1l-1.96,3.1c-3.28-.51-7.25-.61-10.86-.54-4.91.24-10.63-.62-15.29,1.04-.5.18-.73,1.77-.75,2.21-.34,17.02-1.26,34.08-.73,51.11.03.8-.21,1.08-.72,1.56-1.86.19-2.49-1.38-3.83-2.23h0Z"/>
    <path class="st23" d="M610.02,202.08c1.71-.58,2.96-1.82,4.14-3.11-.02,1.54-.11,3.28.21,4.77-4.25,5.04-15.57,8.03-21.91,6.83-1.52-2.15.7-2.07-2.15-4.56l.02-.35.8-.03c7.22-.41,12.24-.82,18.89-3.55h0Z"/>
    <path class="st22" d="M604.32,172.97c1.07,1.02,2.04,6.22,2.54,7.83,1.88,6.06,4.6,12.24,8.64,17.18-.64,4.48,2.32,4.1,1.76,8.34l-2.89-2.59c-.32-1.49-.23-3.23-.21-4.77-.79-1.75-3.12-5.59-4.12-7.35-.09-.75-2.06-5.45-2.46-6.62-1.3-3.85-2.39-7.76-3.27-11.73l.02-.3h0Z"/>
    <path class="st19" d="M610.03,191.62c1,1.75,3.33,5.6,4.12,7.35-1.19,1.3-2.43,2.54-4.14,3.11.34-2.13.27-8.26.02-10.46h0Z"/>
    <path class="st28" d="M574.83,87.38c4.72-11.91,17.93-18.19,30.2-12.71,2.76,1.24,4.87,3.88,6.38,6.46,3.21,4.64,4.65,6.07,5.34,11.76-.04,6.93-1.41,11.11-6.42,16.23-1.48,1.51-6.24,5.15-7.03,6.18-6.19.23-12.42.13-18.57.94-.68.09-1.63.31-2.29.35l-.09-.26c-1.27-.66-6.92,2.18-8.46,2.65,2.1-3,3.14-5.27,3.98-8.85,1.33.81,3.33,2.29,4.81,1.94-2.21-1.03-3.7-1.68-5.29-3.52-1.37-3.82-1.85-4.49-1.43-8.49-1.73-4.86-1.9-7.66-1.12-12.68h-.01Z"/>
    <path class="st9" d="M611.41,81.14c3.21,4.64,4.65,6.07,5.34,11.76-.04,6.93-1.41,11.11-6.42,16.23-1.48,1.51-6.24,5.15-7.03,6.18-6.19.23-12.42.13-18.57.94-.68.09-1.63.31-2.29.35l-.09-.26c-1.27-.66-6.92,2.18-8.46,2.65,2.1-3,3.14-5.27,3.98-8.85,1.33.81,3.33,2.29,4.81,1.94-2.21-1.03-3.7-1.68-5.29-3.52-1.37-3.82-1.85-4.49-1.43-8.49,7.27,10.17,23.27,7.96,30.71-.77,5.26-6.16,5.24-10.61,4.74-18.14h0Z"/>
    <path class="st23" d="M582.67,112.08c.38.1.75.21,1.13.3,6.85,1.73,15.02,1.05,21.06-2.72,6.94-4.33,9.93-8.91,11.89-16.76-.04,6.93-1.41,11.11-6.42,16.23-1.48,1.51-6.24,5.15-7.03,6.18-6.19.23-12.42.13-18.57.94-.68.09-1.63.31-2.29.35l-.09-.26c-1.27-.66-6.92,2.18-8.46,2.65,2.1-3,3.14-5.27,3.98-8.85,1.33.81,3.33,2.29,4.81,1.94h0Z"/>
    <path class="st14" d="M592.78,77.13c2.88-.23,4.78-.45,7.5.9,4.3,2.12,3.41,5.2-.87,6.54-6.84,1.77-15.14-2.87-6.63-7.44Z"/>
    <path class="st18" d="M477.03,190.56l.59-.06c.37,1.2.33,2.59.62,3.9,1.83,8.21,1.38,20.92,5.8,27.85,3.08.21,6.23.47,9.32.1,4.18-.49,27.98-5.76,30.28-7.79,1.04-.92,1.17-2.68,1.24-4.01.38-6.96-.32-14.36-1.73-21.16,9.95,11.49,18.16,24.74,29.77,34.7,4.86,4.16,10.93,2.74,15.92-.18,5.35-3.13,18.62-12.47,21.48-17.91,2.85,2.49.63,2.41,2.15,4.56-2.68,1.48-7.23,6.85-9.98,9.15-7.63,6.39-20.09,16.4-30.25,8.95-10.45-7.67-18.47-19.26-26.96-28.95.25,4.15,1.68,14.48-.91,17.7-3.24,4.04-23.9,8.32-29.69,8.97-3.39.38-7.69.12-10.46-2.13-4.99-4.05-6.44-26.61-7.2-33.69h0Z"/>
    <path class="st6" d="M577.38,108.55c1.6,1.84,3.09,2.5,5.29,3.52-1.48.35-3.48-1.13-4.81-1.94-.84,3.58-1.88,5.85-3.98,8.85,1.54-.48,7.2-3.31,8.46-2.65l.09.26c-6.88,1.96-11.02,2.69-11.65,11-.38,5.05-.2,10.08-.24,15.13l-.28,27.13c-1.24-.71-2.31-1.85-3.24-2.93-6.44-7.43-14.39-13.57-20.95-20.83,8.96-6.65,16.96-14.27,23.85-23.05,4.07-5.18,6.24-7.85,7.45-14.5Z"/>
    <path class="st1" d="M511.77,130.76c4.27-7.21,10.61-15.95,15.24-23.2l9.74-15.48c1.88-2.99,3.87-6.47,6.16-9.12.64-.74,1.45-.98,2.42-.92,7.06.45,20.21,7.4,24.93,12.09l.26,4.38c-.66-.2-1.29-.5-1.9-.21-1.62-.6-3.98-2.23-5.51-3.23-4.16-2.71-10.38-5.82-15.41-5.99-3.52,3.5-6.01,8.21-8.69,12.39-7.2,11.26-16.42,27.92-27.66,35.28.1-2,.23-4,.42-6h0Z"/>
    <path class="st18" d="M455.91,101.32c.2.13.43.29.71.47,1.81,4.42,2.68,10.95,4.37,15.35,2.98,1.1,3.57,1.36,6.75,1.19.1.03,1.24.35,1.24.35,1.32,1.61.61,4.9.51,6.96-.21-1.03-.37-2.07-.51-3.11-1.35-1.61-6.94-.01-8.81-4.67-2.19-5.43-3.04-10.86-4.26-16.54h0Z"/>
    <path class="st20" d="M460.99,117.15c2.98,1.1,3.57,1.36,6.75,1.19-2.24,4.24-5.18,2.06-6.75-1.19Z"/>
    <path class="st19" d="M587.8,197.63c2.1,4.22,1.85,4.19,3.32,7.98l-.8.03c-2.62-2.83-3.49-4.28-2.52-8.01h0Z"/>
    <path class="st17" d="M700.01,117.65c14.63-20.38,42.41-22.82,65.17-17.17,4.32,1.07,11.51,4.05,14.82,7.13,2.14,1.27,4.37,3.7,5.68,5.79,8.33,13.35.05,29.07-10.14,38.35,2.02,1.7,4.88,4.19,6.6,6.21,5.25,7.17,6.67,11.76,6.66,20.79.13,21.89-20.47,37.6-40.51,41.06-7.12.99-14.85,1.73-21.98.54-2.66.21-10.83-1.89-13.48-2.66-6.94-2-19.42-7.08-23.02-13.91.05-.07.09-.14.13-.2,1.18-1.81.46-3.08,0-5.27l-.09-.56c-.61-3.51-1.32-16.94-.84-20.28-.11-3.9,2.4-9.53,4.69-12.68.17-.91.15-2.17.19-3.13.32-7.97,1.49-15.88,1.8-23.86.07-1.69.14-3.4.48-5.06.8-5.4,1.65-10.08,3.85-15.09h0Z"/>
    <path class="st28" d="M706.94,121.63c8.11-10.06,17.11-14.74,30.25-16.03,11.19-1.1,25.03-1.08,34.54,5.59,3.17,2.28,3.83,5.32,3.93,8.94.29-1.17.49-3.53.87-4.1.32.5.24,1.03.47,1.35,2,2.88,2.57,6.32,1.57,9.72-3.64,12.38-10.37,19.51-23.76,19.78,5.57,3.05,6.46,4.23,11.09,7.65,5.8,6.32,8.76,13.7,7.16,22.34-6.84,22.04-38.94,26.5-57.78,20.26-4.52-1.49-13.94-5.33-16.08-9.8-1.24-1.76-1.9-3.54-2.55-5.54-.73-4.08.19-6.66,1.45-10.45,2.42-2.76,3.2-7.27,8.04-6.38,1.91,1.76,3.71,3.79,5.69,5.44,6.57,5.44,21.11,11.56,28.01,3.93.21-.24.42-.48.63-.72.93-2.72-.24-5.43-2.5-7.11-9.7-7.2-26.21-11.94-31.04-24.3-1.37-3.1-2.09-5.4-2.79-8.68.07-5.68.33-6.86,2.78-11.91h.02Z"/>
    <path class="st14" d="M706.94,121.63c8.11-10.06,17.11-14.74,30.25-16.03,11.19-1.1,25.03-1.08,34.54,5.59,3.17,2.28,3.83,5.32,3.93,8.94-.25,1.49-.46,2.88-.95,4.32-2.03-.94-3.64-5.82-5.98-7.46-16.25-11.35-48.18-7.19-58.39,10.88-2.14,3.79-1.69,9.52-2.44,13.66,0,0-.81.61-.94.69-1.37-3.1-2.09-5.4-2.79-8.68.07-5.68.33-6.86,2.78-11.91h0Z"/>
    <path class="st27" d="M775.66,120.14c.29-1.17.49-3.53.87-4.1.32.5.24,1.03.47,1.35,2,2.88,2.57,6.32,1.57,9.72-3.64,12.38-10.37,19.51-23.76,19.78-4.47-1.33-16.63-7.77-19.9-11.22-3.59-8.66,12.35-9.45,17.2-6.96,4.24,1.83,3.59,7.42,8.25,8.89,7.51,2.36,12.34-7.63,14.35-13.14.49-1.44.69-2.82.95-4.32h0Z"/>
    <path class="st14" d="M698.1,171.35c2.42-2.76,3.2-7.27,8.04-6.38,1.91,1.76,3.71,3.79,5.69,5.44,6.57,5.44,21.11,11.56,28.01,3.93.21-.24.42-.48.63-.72l.1.05c2.87,1.38,3.42-1.01,4.41.94.16,1.87-1.19,3.76-2.32,5.18-2.86,3.56-5.97,4.24-10.3,4.68-8.04.82-15.71-2.2-21.85-7.29-2.2-1.83-4.1-4.06-6.21-5.91-4.14,4.29-3.57,9.69-4.04,15.04-.04.45-.73.79-1.09,1.02-1.24-1.76-1.9-3.54-2.55-5.54-.73-4.08.19-6.66,1.45-10.45h0Z"/>
    <path class="st8" d="M734.9,135.67c3.27,3.45,15.44,9.89,19.9,11.22,5.57,3.05,6.46,4.23,11.09,7.65,5.8,6.32,8.76,13.7,7.16,22.34-.36-.08-1.67-.36-1.81-.71-3.43-8.12-5.69-13.44-12.83-19.11-6.9-5.48-22.86-8.24-24.18-18.06-.17-1.26-.12-2.48.67-3.34h0Z"/>
    <path class="st27" d="M782.14,157.96c5.25,7.17,6.67,11.76,6.66,20.79.13,21.89-20.47,37.6-40.51,41.06-7.12.99-14.85,1.73-21.98.54-2.66.21-10.83-1.89-13.48-2.66-6.94-2-19.42-7.08-23.02-13.91.05-.07.09-.14.13-.2,1.18-1.81.46-3.08,0-5.27l-.09-.56c-.61-3.51-1.32-16.94-.84-20.28.52,9.77,5.18,18.39,13.8,23.26,25.67,14.5,76.12,11.66,81.78-24.24.63-3.99-.56-14.33-3.07-17.31l.63-1.21h0Z"/>
    <path class="st24" d="M689.94,198.3c2.05,4.2,9.16,9.2,13.4,11.36,16.28,8.3,37.22,9.42,54.63,4.35,6.62-2.26,13.96-6.54,19.3-11.02,3.62-3.04,7.75-10.64,9.77-14.98.84-1.81.6-8.21,1.33-9.65l.43.39c.13,21.89-20.47,37.6-40.51,41.06-7.12.99-14.85,1.73-21.98.54-2.66.21-10.83-1.89-13.48-2.66-6.94-2-19.42-7.08-23.02-13.91.05-.07.09-.14.13-.2,1.18-1.81.46-3.08,0-5.27h0Z"/>
    <path class="st12" d="M726.31,220.35c1.19-.61,20.02-1.18,21.54-.69.15.05.3.1.45.15-7.12.99-14.85,1.73-21.98.54h0Z"/>
    <path class="st7" d="M696.15,132.74c1.03.96,1.23,5.41,1.48,7.18,1.38,9.84,11.86,21.4,21.34,24.32,1.24.14,1.8.14,2.85.82l.08.05c1.14-1.62-1.39-4.06-2.36-5.38-1.15-.8-3.38-3.04-4.45-4.04-6.12-5.73-10.1-12.64-11.66-20.96l.73-1.19c.7,3.28,1.42,5.58,2.79,8.68,4.83,12.36,21.35,17.11,31.04,24.3,2.25,1.68,3.43,4.39,2.5,7.11-.2.24-.41.48-.63.72-6.91,7.63-21.45,1.51-28.01-3.93-1.98-1.64-3.78-3.68-5.69-5.44-.13-.43-.26-.7-.54-1.07-3.51-4.5-8.28-2.06-11.92.88.17-.91.15-2.17.19-3.13.32-7.97,1.49-15.88,1.8-23.86.07-1.69.14-3.4.48-5.06h0Z"/>
    <path class="st11" d="M719.54,159.73c1.84,1.2,5.06,4.04,5.61,6.2l-.19.63c-1.55.56-4.58-1.52-5.99-2.33,1.24.14,1.8.14,2.85.82l.08.05c1.14-1.62-1.39-4.06-2.36-5.38h0Z"/>
    <path class="st27" d="M765.89,154.54l.6-.17c3.95,2.3,9.28,10.31,10.29,14.9,3.8,17.38-12.91,29.82-27.8,33.62-12.84,3.27-31.18.96-42.74-5.91-6.48-4.03-8.29-7.47-10.31-14.61l.72-.57c.65,2.01,1.31,3.78,2.55,5.54,2.12,4.48,11.56,8.32,16.08,9.8,18.84,6.23,50.93,1.77,57.78-20.26,1.6-8.64-1.36-16.01-7.16-22.34h0Z"/>
    <path class="st27" d="M780,107.61c2.14,1.27,4.37,3.7,5.68,5.79,8.33,13.35.05,29.07-10.14,38.35,2.02,1.7,4.88,4.19,6.6,6.21l-.63,1.21c-3.01-4.51-7.48-7.92-12.16-10.56,10.44-6.29,20.07-23.9,14.39-36.12-.6-1.3-2.78-3.12-3.69-4.79l-.05-.09h0Z"/>
    <path class="st11" d="M703.44,134.73c-1-2-.05-8.22.91-10.16.89-1.81.77-2.15,2.6-2.95-2.45,5.05-2.71,6.23-2.78,11.91l-.73,1.19Z"/>
    <path class="st11" d="M695.94,182.37c-1.32-3.53-.47-7.96,1.59-11.02h.58c-1.25,3.78-2.18,6.35-1.45,10.44l-.72.57h0Z"/>
    <path class="st4" d="M652.95,109.86c-.26-5.11-1.73-28.85,1.22-31.52,5.95-5.4,30.64-7.12,39.31-8.08,14.74-1.63,11.99,7.2,10.51,16.77-1.05,6.56-2.01,13.13-2.89,19.71-.38,2.87-1.19,8.2-1.09,10.91-2.2,5.01-3.05,9.69-3.85,15.09-.33,1.66-.41,3.37-.48,5.06-.31,7.97-1.49,15.88-1.8,23.86-.04.96-.02,2.22-.19,3.13-2.28,3.15-4.8,8.77-4.69,12.68-.47,3.34.23,16.78.84,20.28l.09.56c.47,2.19,1.18,3.46,0,5.27-.04.07-.09.14-.13.2-2.6,2.73-8.01,5.33-11.71,6.04-8.14,1.57-13.64,1.05-20.68-3.37-12.14,7.86-28.38,9.15-40.15-.13.56-4.24-2.39-3.85-1.76-8.34-4.04-4.94-6.76-11.12-8.64-17.18-.5-1.61-1.46-6.81-2.54-7.83-2.39-16.01-1.36-30.21,7.1-44.28l1.96-3.1c2.06-2.46,3.05-4.1,5.46-6.37,3.11-2.31,6.3-4.84,9.68-6.72,6.98-3.88,16.75-4.77,24.43-2.64h0Z"/>
    <path class="st15" d="M615.51,197.98c3.32,3.46,5.76,6.03,10.39,7.77,11.73,4.41,23.08,1.32,32.64-6,3.94,4.34,4.93,4.95,11.07,5.7,5.19.63,18.15-2.72,20.23-7.7l.09.56c.47,2.19,1.18,3.46,0,5.27-.04.07-.09.14-.13.2-2.6,2.73-8.01,5.33-11.71,6.04-8.14,1.57-13.64,1.05-20.68-3.37-12.14,7.86-28.38,9.15-40.15-.13.56-4.24-2.39-3.85-1.76-8.34h0Z"/>
    <path class="st26" d="M661.48,119.43c-.16-4.53-1.11-34.53.26-37.05,2.49-2.01,8.64-2.61,11.91-2.98,6.75-.78,13.6-2.29,20.39-2.08,3.56.11,2.47,3.95,2.18,6.17-3.08,20.92-6.52,44-8.63,65.06-.77,8.14-1.45,16.29-2.02,24.45-.27,3.78-.2,15.82-3.18,18.13-2.51,1.95-8.98,2.54-12.19,2.03-5.93-.84-6.04-6.38-6.23-10.98-6.29,7.34-13.21,13.63-23.31,14.43-6.36.46-12.63-1.64-17.43-5.84-5.5-4.73-9.44-12.4-10.45-19.55-2.67-10.34-2.28-19.47.7-29.68.45-1.24.95-2.45,1.51-3.64,8.59-18.68,27.34-27.35,46.48-18.47h0Z"/>
    <path class="st29" d="M661.48,119.43c-.16-4.53-1.11-34.53.26-37.05,2.49-2.01,8.64-2.61,11.91-2.98,6.75-.78,13.6-2.29,20.39-2.08,3.56.11,2.47,3.95,2.18,6.17-2.77-.2-12.35,1.35-15.36,1.81-4.32.66-9.49,1.13-13.75,1.81,0,5.49.75,38.47-.12,41.39-1.54.22-6.42-3-8.35-3.85-23.12-10.16-42.22,11.49-42.41,33.58-.03,3.1.31,6.33.31,9.37-1-1.57-.71-12.19-.37-14.54.3-2.19,2.71-9.63,2.62-10.96l-.38-.36c-.96.25-2.06.62-2.97,1-.04.01-.74-.58-1.59-.59-.64,2.45-1.37,5.08-1.71,7.58-.23,1.73,2.22,5.37,0,7.03l-.41-.6c-1.08,4.22,1.08,11.37,1.5,14.94l-.44.14c-2.67-10.34-2.28-19.47.7-29.68.45-1.24.95-2.45,1.51-3.64,8.59-18.68,27.34-27.35,46.48-18.47h.01Z"/>
    <path class="st25" d="M634.97,164.52c-.44-4.36-.54-7.46,1.2-11.69,3.83-9.32,13.33-14.71,23.04-15.67.67-.07,1.34-.12,2.01-.14.2,9.23.64,18.76-.02,27.94.41.06,1.02.26,1.44.37,1.33-.24,2.95-1.34,4.15-2.06.42,2.99-1.93,7.38-3.67,9.67-3.43,4.51-8.92,7.2-14.46,8-4.44.64-9.57-.8-13.11-3.55-3.74-3-4.12-6.14-4.66-10.52.99-.04,1.81-.09,2.8-.2,1-.74.78-.8,1.27-2.14h0Z"/>
    <path class="st29" d="M666.79,163.26c.42,2.99-1.93,7.38-3.67,9.67-3.43,4.51-8.92,7.2-14.46,8-4.44.64-9.57-.8-13.11-3.55-3.74-3-4.12-6.14-4.66-10.52.99-.04,1.81-.09,2.8-.2,1-.74.78-.8,1.27-2.14,4.53,13,21.81,9.76,26.23.43.41.06,1.02.26,1.44.37,1.33-.24,2.95-1.34,4.15-2.06h0Z"/>
    <path class="st13" d="M646.79,155.36h.12c1.51-.04,4.08.63,5.18,1.73,1.75,1.76,1.58,4,1.58,6.29-1.05,2.21-2.34,3.4-4.41,4.66-.89.14-1.88.31-2.78.27-1-.04-1.98-.62-2.64-1.34-1.65-1.82-1.56-4.79-1.44-7.07,1.19-2.09,2.38-3.24,4.4-4.53h0Z"/>
  </g>
</svg>