<?xml version="1.0" encoding="utf-8" ?><svg xmlns="http://www.w3.org/2000/svg" xmlns:xlink="http://www.w3.org/1999/xlink" width="1254" height="1254" viewBox="0 0 1254 1254"><path fill="#08090B" d="M0 0L1254 0L1254 1254L0 1254L0 0Z"/><path fill="#0F121A" d="M238.235 4.02267C239.256 3.92566 240.279 3.8463 241.303 3.78464C255.384 2.91132 276.918 3.66973 291.693 3.69714L386.924 3.72539L695.97 3.68585L914.684 3.71945L976.361 3.69827C998.571 3.68463 1018.85 3.08437 1040.89 6.99755C1085.18 14.8487 1126.39 34.9584 1159.83 65.0442C1207.11 107.708 1235.24 167.594 1237.89 231.222C1238.79 249.618 1238.12 273.33 1238.12 292.062L1238.05 408.035L1238.03 750.944L1237.99 937.469L1238.01 991.302C1238 1013.34 1238.38 1031.47 1234.48 1053.4C1226.53 1097.28 1206.42 1138.04 1176.44 1171.05C1134.1 1218.27 1074.44 1246.32 1011.07 1248.81C1008.21 1249.23 1003.04 1249.06 1000 1249.05C988.773 1249.03 977.548 1248.97 966.32 1248.97L876.066 1249L588.119 1248.99L343.872 1249L278.035 1248.98C252.702 1249 232.565 1249.75 207.446 1245.28C164.545 1237.35 124.683 1217.67 92.2898 1188.45C45.3282 1146.73 16.9454 1088 13.4312 1025.28C12.4768 1006.59 13.0695 983.442 13.0524 964.33L13.0449 850.697L13.041 506.264L13.0654 310.468L12.9999 259.548C12.9575 238.091 12.6272 220.732 16.3816 199.374C24.3185 155.911 44.1847 115.512 73.7603 82.6901C115.973 35.6804 175.143 7.37992 238.235 4.02267Z"/><path fill="#FEFEFE" d="M224.603 168.694C254.598 141.894 305.032 139.703 339.587 157.907C353.661 165.322 367.039 174.03 380.575 182.398L455.668 228.931C543.451 283.045 630.936 337.641 718.119 392.715L806.624 448.898L836.764 468.263C841.601 471.373 848.719 476.254 853.608 478.924C871.67 458.657 886.808 464.787 910.742 462.884C940.917 460.484 964.612 471.064 966.905 504.525C968.153 522.737 966.347 543.05 967.276 561.737C990.951 544.019 1016.91 540.067 1046.13 543.629C1067.53 546.236 1100.95 559.906 1114.09 577.77C1120.38 586.238 1122.97 596.901 1121.25 607.313C1119.29 619.499 1105.06 647.498 1096.55 655.786C1112.62 674.986 1119.78 692.342 1117.51 717.949C1115.77 740.088 1105.15 760.581 1088.07 774.774C1051.2 805.589 989.442 799.639 950.957 775.176C939.289 783.763 928.786 784.132 914.738 785.595C904.74 786.637 892.639 788.207 883.733 782.315C870.584 792.162 854.94 801.956 841.267 811.398L509.205 1036.25L421.426 1096.06C408.635 1104.78 395.598 1114.18 382.683 1122.39C343.533 1147.3 291.026 1148.34 251.566 1123.56C248.054 1121.36 243.769 1118.59 240.735 1115.77C239.266 1114.7 237.821 1113.6 236.401 1112.46C188.126 1073.61 175.489 1005.34 210.291 953.561C218.043 942.027 227.014 930.869 235.478 919.816L276.225 866.629C322.968 805.617 371.002 741.142 419.309 681.534C414.273 658.817 407.39 635.841 401.929 613.147C395.644 587.026 386.566 567.933 407.836 545.823C394.13 530.824 379.694 513.493 366.069 498.011L278.722 398.92L233.842 347.912C225.611 338.564 214.321 326.526 207.262 316.581C190.027 292.297 181.909 262.682 186.909 233.119C190.763 210.335 205.463 182.051 224.603 168.694Z"/><defs><linearGradient id="gradient_0" gradientUnits="userSpaceOnUse" x1="437.03574" y1="556.82831" x2="569.46777" y2="281.32233"><stop offset="0" stop-color="#F86F00"/><stop offset="1" stop-color="#FE9302"/></linearGradient></defs><path fill="url(#gradient_0)" d="M224.603 168.694C254.598 141.894 305.032 139.703 339.587 157.907C353.661 165.322 367.039 174.03 380.575 182.398L455.668 228.931C543.451 283.045 630.936 337.641 718.119 392.715L806.624 448.898L836.764 468.263C841.601 471.373 848.719 476.254 853.608 478.924C851.02 482.441 850 484.125 847.922 487.979C840.242 506.672 846.214 540.687 846.942 561.83C818.78 562.731 797.726 570.678 778.018 591.861C775.088 594.99 772.365 598.306 769.866 601.788C767.692 599.014 766.172 596.893 763.53 594.517C784.558 562.237 776.625 521.317 743.746 500.663C728.977 491.356 711.09 488.368 694.097 492.37C674.622 496.872 661.072 507.941 650.743 524.665C636.751 514.959 620.269 510.087 604.382 504.441C584.24 497.283 562.284 503.431 550.918 522.069C543.528 534.186 534.632 547.831 528.66 560.721C524.958 544.651 522.144 530.157 507.325 520.503C486.854 507.168 464.676 520.196 444.618 527.636C432.51 532.127 417.471 537.32 407.836 545.823C394.13 530.824 379.694 513.493 366.069 498.011L278.722 398.92L233.842 347.912C225.611 338.564 214.321 326.526 207.262 316.581C190.027 292.297 181.909 262.682 186.909 233.119C190.763 210.335 205.463 182.051 224.603 168.694Z"/><path fill="#FEC84E" d="M224.603 168.694C254.598 141.894 305.032 139.703 339.587 157.907C353.661 165.322 367.039 174.03 380.575 182.398L455.668 228.931C543.451 283.045 630.936 337.641 718.119 392.715L806.624 448.898L836.764 468.263C841.601 471.373 848.719 476.254 853.608 478.924C851.02 482.441 850 484.125 847.922 487.979C845.381 486.6 837.249 480.997 834.356 479.141C824.044 472.494 813.691 465.913 803.296 459.397L690.061 387.751C664.992 371.878 639.818 356.173 614.539 340.636L443.357 234.161L374.148 191.141C362.723 184.041 345.575 172.643 333.93 167.107C326.278 163.453 318.212 160.736 309.909 159.013C279.1 152.732 255.843 159.593 230.395 176.555C236.166 169.169 239.003 172.76 237.154 162.614C233.529 161.595 229.065 168.159 224.603 168.694Z"/><path fill="#F16200" d="M240.735 1115.77C239.266 1114.7 237.821 1113.6 236.401 1112.46C188.126 1073.61 175.489 1005.34 210.291 953.561C218.043 942.027 227.014 930.869 235.478 919.816L276.225 866.629C322.968 805.617 371.002 741.142 419.309 681.534C431.357 725.763 441.448 770.764 453.284 815.097C457.528 830.995 460.374 844.023 476.202 853.053C497.687 865.309 527.733 851.785 550.18 847.313C573.148 842.738 585.867 822.05 583.079 798.962L603.057 815.59C616.027 826.233 626.708 835.179 644.497 833.562C664.435 831.751 675.42 818.357 687.531 804.363C694.384 802.951 692.421 791.494 702.336 796.177C714.264 801.809 727.894 798.057 740.335 795.979C751.052 794.189 764.858 792.074 773.388 784.822C778.052 780.808 781.304 775.221 785.032 770.181L785.975 770.083C787.21 771.816 786.778 770.951 788.161 771.94C810.495 787.896 824.816 790.826 852.422 790.793C849.86 792.707 843.647 796.523 841.786 798.548C839.559 800.903 837.828 802.109 835.272 804.054C837.425 806.21 840.191 808.59 841.267 811.398L509.205 1036.25L421.426 1096.06C408.635 1104.78 395.598 1114.18 382.683 1122.39C343.533 1147.3 291.026 1148.34 251.566 1123.56C248.054 1121.36 243.769 1118.59 240.735 1115.77Z"/><defs><linearGradient id="gradient_1" gradientUnits="userSpaceOnUse" x1="551.44312" y1="947.02966" x2="590.2149" y2="998.48944"><stop offset="0" stop-color="#B83A00"/><stop offset="1" stop-color="#DA4E00"/></linearGradient></defs><path fill="url(#gradient_1)" d="M240.735 1115.77C246.132 1117.58 249.537 1120.8 253.757 1123.54C261.154 1128.34 296.711 1143.06 303.27 1138.98C303.585 1139.4 303.425 1139.17 303.748 1139.68L303.035 1138.6C303.214 1136.66 304.403 1134.71 305.298 1132.92L306.315 1132.47C304.892 1131.77 301.305 1131.78 299.342 1131.51C293.64 1130.75 271.288 1125.32 268.548 1121.63C269.933 1122.35 271.346 1123.02 272.784 1123.63C307.394 1138.1 351.11 1132.58 381.777 1111.59C394.073 1103.18 406.385 1094.78 418.686 1086.38L491.232 1036.96L762.024 853.575C780.23 841.255 798.41 828.888 816.547 816.474C822.429 812.448 836.353 800.749 841.786 798.548C839.559 800.903 837.828 802.109 835.272 804.054C837.425 806.21 840.191 808.59 841.267 811.398L509.205 1036.25L421.426 1096.06C408.635 1104.78 395.598 1114.18 382.683 1122.39C343.533 1147.3 291.026 1148.34 251.566 1123.56C248.054 1121.36 243.769 1118.59 240.735 1115.77Z"/><path fill="#AB3800" d="M784.497 766.894C791.544 772.975 799.787 778.611 808.325 782.366C826.258 790.175 846.256 791.895 865.259 787.262C870.378 785.965 874.652 784.251 879.511 782.282C882.112 781.228 881.793 781.426 883.733 782.315C870.584 792.162 854.94 801.956 841.267 811.398C840.191 808.59 837.425 806.21 835.272 804.054C837.828 802.109 839.559 800.903 841.786 798.548C843.647 796.523 849.86 792.707 852.422 790.793C824.816 790.826 810.495 787.896 788.161 771.94C786.778 770.951 787.21 771.816 785.975 770.083L785.032 770.181C781.304 775.221 778.052 780.808 773.388 784.822C764.858 792.074 751.052 794.189 740.335 795.979C727.894 798.057 714.264 801.809 702.336 796.177C692.421 791.494 694.384 802.951 687.531 804.363C690.25 800.541 693.837 796.174 696.761 792.416C698.467 793.325 700.203 794.175 701.968 794.964C709.438 798.243 719.096 798.448 727.025 797.043C751.879 792.639 773.279 793.007 784.497 766.894Z"/><path fill="#08090B" d="M585.263 527.261C598.078 526.573 623.707 538.561 635.488 544.246C644.075 548.39 647.382 561.125 642.65 569.563C635.726 581.91 626.947 593.695 618.766 605.389L577.073 665.37C584.824 671.753 596.116 679.64 604.347 685.69L653.137 721.418C655.811 723.367 659.296 725.671 661.79 727.719C670.338 734.742 687.718 742.951 687.659 755.601C687.603 767.356 675.287 779.49 668.362 788.618C659.319 800.54 645.439 816.026 629.508 804.421C600.018 780.984 570.419 756.241 542.527 730.867C548.301 752.335 553.803 778.46 558.891 800.231C563.967 824.717 534.128 824.862 517.917 829.349C502.529 833.608 484.844 838.351 479.675 817.927C475.372 800.924 471.243 784.006 467.021 767.086L443.555 674.465L427.341 610.556C424.704 600.202 421.88 589.743 419.628 579.33C418.297 573.179 423.635 564.381 429.139 561.808C445.607 554.11 463.738 547.687 480.973 541.743C501.622 534.621 503.874 563.159 506.967 576.461C511.087 594.364 515.297 612.246 519.597 630.107C531.623 603.523 549.379 574.54 563.771 548.82C569.557 538.481 573.545 530.291 585.263 527.261Z"/><path fill="#08090B" d="M890.482 488.925C901.051 488.103 912.34 488.429 922.954 488.459C946.094 488.526 942.959 508.038 943.002 523.882L943.007 566.15C943.091 606.727 942.903 647.304 942.445 687.879C942.275 705.359 942.195 722.919 941.959 740.397C941.67 743.115 941.633 749.145 940.018 751.329C933.33 760.374 919.359 759.692 909.385 761.181C903.564 762.05 896.975 762.56 892.274 759.055C888.227 756.037 887.729 750.734 886.988 746.136C883.877 749.876 880.257 753.163 876.233 755.898C861.778 765.66 846.1 766.575 829.463 763.234C771.332 746.158 755.956 672.153 784.818 623.922C802.558 594.276 841.549 575.516 873.288 594.982C872.28 574.843 871.123 554.713 869.819 534.591C869.518 529.177 869.241 523.498 868.933 518.096C867.867 499.394 869.508 489.993 890.482 488.925Z"/><path fill="#FEFEFE" d="M855.3 646.679C865.223 646.234 877.154 650.974 878.271 662.325C880.398 683.929 883.486 700.983 857.017 705.367C824.964 701.848 824.533 653.686 855.3 646.679Z"/><path fill="#08090B" d="M1022.55 567.861C1045.6 565.749 1075.28 575.263 1093.42 591.178C1105.44 601.721 1086.25 630.514 1079.18 639.227C1071.71 648.429 1047.99 626.655 1037.22 626.577C1029.38 626.52 1019.62 629.987 1028.92 639.96C1056.54 657.779 1091.81 668.455 1093.98 707.204C1094.95 722.81 1089.57 738.144 1079.05 749.719C1064.98 765.049 1046.34 770.117 1026.22 770.875C1005.04 771.164 967.694 762.911 953.138 744.3C949.391 739.509 952.95 731.021 954.801 726.108C973.646 676.093 978.128 705.278 1013.53 713.815C1018.33 714.974 1027.14 713.015 1027.02 706.357C1026.03 698.697 1013.04 694.009 1007.2 690.336C983.789 677.971 960.675 663.892 957.759 635.109C956.208 619.449 960.956 603.815 970.955 591.663C984.104 575.952 1002.71 569.58 1022.55 567.861Z"/><path fill="#08090B" d="M732.023 612.514C734.179 612.133 737.305 611.928 739.431 612.24C743.332 612.784 746.852 614.87 749.203 618.03C752.899 623.033 753.887 644.824 754.552 652.239L758.772 698.918C760.414 716.813 762.323 735.984 763.213 753.839C764.014 769.907 721.444 774.152 711.241 771.835C707.446 770.014 702.996 766.354 702.066 762.039C693.328 721.509 686.011 680.51 678.415 639.742C676.429 630.705 681.224 622.166 690.464 619.82C703.761 616.443 718.384 614.473 732.023 612.514Z"/><path fill="#08090B" d="M703.7 516.275C726.778 513.591 747.674 530.092 750.414 553.164C753.154 576.235 736.704 597.172 713.639 599.967C690.495 602.772 669.471 586.253 666.722 563.103C663.973 539.952 680.542 518.968 703.7 516.275Z"/></svg>